<svg width="234" height="46" viewBox="0 0 234 46" fill="none" xmlns="http://www.w3.org/2000/svg">
<path d="M60.5641 12.2978V39.1588H55.5043V12.2978H47.2343V7.99834H68.7916V12.2978H60.5641Z" fill="white"/>
<path d="M73.3199 22.1951C73.8159 20.8613 74.4679 19.8751 75.2758 19.2366C76.0978 18.598 77.1112 18.2788 78.3159 18.2788C78.9678 18.2788 79.6056 18.3568 80.2292 18.5129C80.867 18.669 81.4907 18.896 82.1001 19.194L80.4418 23.1103C80.045 22.8265 79.6127 22.6208 79.145 22.4931C78.6915 22.3512 78.1812 22.2802 77.6143 22.2802C76.0836 22.2802 74.9852 22.8975 74.3191 24.132C73.6529 25.3523 73.3199 27.4098 73.3199 30.3045V39.1588H68.7065V18.9386H73.3199V22.1951Z" fill="white"/>
<path d="M103.7 39.1588H99.0865V36.5408C98.2645 37.7044 97.3007 38.57 96.1952 39.1376C95.1039 39.7051 93.8496 39.9889 92.4323 39.9889C89.5835 39.9889 87.337 39.0169 85.693 37.073C84.0631 35.1148 83.2481 32.44 83.2481 29.0487C83.2481 25.8277 84.0843 23.2309 85.7567 21.2586C87.4292 19.272 89.6118 18.2788 92.3047 18.2788C93.9488 18.2788 95.3519 18.6264 96.5141 19.3217C97.6905 20.0028 98.5479 20.989 99.0865 22.2802V18.9811H103.7V39.1588ZM99.2141 29.0061C99.2141 26.9203 98.7251 25.2955 97.7472 24.132C96.7834 22.9684 95.4299 22.3867 93.6866 22.3867C91.9433 22.3867 90.5685 22.9897 89.5622 24.1958C88.5701 25.3878 88.0741 27.048 88.0741 29.1764C88.0741 31.3191 88.5559 32.9721 89.5197 34.1357C90.4835 35.2992 91.8441 35.881 93.6015 35.881C95.2598 35.881 96.6062 35.2496 97.6409 33.9867C98.6897 32.7238 99.2141 31.0636 99.2141 29.0061Z" fill="white"/>
<path d="M117.157 40.3721L106.591 18.9811H111.63L116.03 29.1338C116.172 29.446 116.342 29.9143 116.541 30.5386C116.739 31.163 116.945 31.9079 117.157 32.7735C117.299 32.1633 117.462 31.5603 117.646 30.9643C117.845 30.3542 118.078 29.744 118.348 29.1338L122.727 18.9811H127.744L117.157 40.3721Z" fill="white"/>
<path d="M150.067 29.7511H133.952C134.066 31.6383 134.626 33.114 135.632 34.1783C136.638 35.2283 137.977 35.7533 139.65 35.7533C141.138 35.7533 142.378 35.4411 143.37 34.8168C144.362 34.1925 145.227 33.185 145.964 31.7944L149.854 33.9654C148.721 35.9945 147.317 37.5057 145.645 38.499C143.973 39.4923 142.01 39.9889 139.756 39.9889C136.525 39.9889 133.952 39.0028 132.039 37.0304C130.126 35.058 129.169 32.4258 129.169 29.1338C129.169 25.9695 130.154 23.3728 132.124 21.3437C134.108 19.3004 136.652 18.2788 139.756 18.2788C143.002 18.2788 145.532 19.2082 147.346 21.067C149.16 22.9259 150.067 25.5297 150.067 28.8784V29.7511ZM145.284 26.6436C145.099 25.1962 144.547 24.0965 143.625 23.3445C142.704 22.5782 141.443 22.1951 139.841 22.1951C138.325 22.1951 137.106 22.564 136.185 23.3019C135.263 24.0398 134.618 25.1536 134.25 26.6436H145.284Z" fill="white"/>
<path d="M155.106 39.1588V6.16788H159.719V39.1588H155.106Z" fill="white"/>
<path d="M166.543 39.1588V6.16788H171.157V39.1588H166.543Z" fill="white"/>
<path d="M177.364 10.2545C177.364 9.47407 177.648 8.80006 178.215 8.23247C178.796 7.66489 179.483 7.38109 180.277 7.38109C181.099 7.38109 181.779 7.65779 182.318 8.21119C182.871 8.75039 183.147 9.4315 183.147 10.2545C183.147 11.0775 182.871 11.7728 182.318 12.3404C181.765 12.8938 181.085 13.1705 180.277 13.1705C179.483 13.1705 178.796 12.8867 178.215 12.3191C177.648 11.7373 177.364 11.0491 177.364 10.2545ZM177.981 39.1588V18.9811H182.594V39.1588H177.981Z" fill="white"/>
<path d="M208.17 39.1588H203.556V36.5408C202.734 37.7044 201.77 38.57 200.665 39.1376C199.574 39.7051 198.319 39.9889 196.902 39.9889C194.053 39.9889 191.807 39.0169 190.163 37.073C188.533 35.1148 187.718 32.44 187.718 29.0487C187.718 25.8277 188.554 23.2309 190.226 21.2586C191.899 19.272 194.082 18.2788 196.774 18.2788C198.419 18.2788 199.822 18.6264 200.984 19.3217C202.16 20.0028 203.018 20.989 203.556 22.2802V18.9811H208.17V39.1588ZM203.684 29.0061C203.684 26.9203 203.195 25.2955 202.217 24.132C201.253 22.9684 199.9 22.3867 198.156 22.3867C196.413 22.3867 195.038 22.9897 194.032 24.1958C193.04 25.3878 192.544 27.048 192.544 29.1764C192.544 31.3191 193.026 32.9721 193.989 34.1357C194.953 35.2992 196.314 35.881 198.071 35.881C199.73 35.881 201.076 35.2496 202.111 33.9867C203.159 32.7238 203.684 31.0636 203.684 29.0061Z" fill="white"/>
<path d="M214.547 39.1588V18.9811H218.884V22.2802C219.806 20.8897 220.89 19.8751 222.137 19.2366C223.384 18.598 224.901 18.2788 226.687 18.2788C228.189 18.2788 229.465 18.52 230.513 19.0024C231.576 19.4707 232.406 20.1731 233.001 21.1096C233.355 21.663 233.61 22.3086 233.766 23.0465C233.922 23.7843 234 25.0756 234 26.9203V39.1588H229.344V28.7933C229.344 26.1398 229.018 24.3803 228.366 23.5147C227.728 22.635 226.587 22.1951 224.943 22.1951C223.866 22.1951 222.902 22.3938 222.052 22.7911C221.216 23.1884 220.557 23.7489 220.075 24.4725C219.735 24.955 219.494 25.5793 219.352 26.3456C219.225 27.0976 219.161 28.3037 219.161 29.9639V39.1588H214.547Z" fill="white"/>
<path d="M14.443 33.2473L20.3596 39.08L26.2762 33.2473L20.3596 27.4147L14.443 33.2473ZM20.3596 4.94084V4.94961C18.6662 4.94961 16.9728 5.58696 15.6827 6.85873L15.6768 6.85289C14.3896 8.12466 13.7431 9.79697 13.7431 11.4693C13.7431 13.1445 14.3867 14.8139 15.6708 16.0798H15.6797L20.3596 20.6904L25.0366 16.0798H25.0455C26.3385 14.8051 26.985 13.1357 26.985 11.4693H26.9761C26.9761 9.7999 26.3296 8.13051 25.0395 6.85873C23.7405 5.58111 22.0471 4.94084 20.3596 4.94084ZM29.6868 36.6095L20.3596 45.8043L11.0325 36.6095L3.41057 44.1232L0 40.761L16.952 24.0526L12.2751 19.442L12.281 19.4362C10.0419 17.2317 8.92383 14.3461 8.92383 11.4693C8.92383 8.58952 10.0419 5.70683 12.2751 3.50534V3.49949C14.5083 1.29801 17.4354 0.195801 20.3596 0.195801V0.204572C23.2898 0.204572 26.2199 1.30385 28.4471 3.49949C30.6803 5.70098 31.7954 8.58659 31.7954 11.4722H31.7865C31.7865 14.3549 30.6714 17.2376 28.4412 19.4391L28.4471 19.4449L23.7702 24.0526L40.7193 40.761L37.3087 44.1232L29.6868 36.6095Z" fill="white"/>
</svg>
